<?xml version="1.0" standalone="no"?><!DOCTYPE svg PUBLIC "-//W3C//DTD SVG 1.1//EN" "http://www.w3.org/Graphics/SVG/1.1/DTD/svg11.dtd"><svg t="1739808112270" class="icon" viewBox="0 0 1024 1024" version="1.1" xmlns="http://www.w3.org/2000/svg" p-id="18791" xmlns:xlink="http://www.w3.org/1999/xlink" width="200" height="200"><path d="M552.96 61.44a40.96 40.96 0 1 0-81.92 0v90.112a40.96 40.96 0 1 0 81.92 0V61.44zM860.85632 221.06112a40.96 40.96 0 1 0-57.91744-57.91744l-63.71328 63.6928a40.96 40.96 0 0 0 57.91744 57.9584l63.71328-63.73376zM221.06112 163.14368a40.96 40.96 0 1 0-57.91744 57.91744l63.6928 63.71328a40.96 40.96 0 0 0 57.9584-57.91744l-63.73376-63.71328zM512 245.76c-147.0464 0-266.24 119.1936-266.24 266.24s119.1936 266.24 266.24 266.24 266.24-119.1936 266.24-266.24-119.1936-266.24-266.24-266.24zM61.44 471.04a40.96 40.96 0 1 0 0 81.92h90.112a40.96 40.96 0 1 0 0-81.92H61.44zM872.448 471.04a40.96 40.96 0 1 0 0 81.92H962.56a40.96 40.96 0 1 0 0-81.92h-90.112zM284.7744 797.32736a40.96 40.96 0 0 0-57.91744-57.91744l-63.71328 63.71328a40.96 40.96 0 1 0 57.91744 57.91744l63.71328-63.6928zM797.14304 739.40992a40.96 40.96 0 1 0-57.91744 57.91744l63.71328 63.71328a40.96 40.96 0 0 0 57.91744-57.91744l-63.6928-63.71328zM552.96 872.448a40.96 40.96 0 1 0-81.92 0V962.56a40.96 40.96 0 1 0 81.92 0v-90.112z" fill="#FEF706" p-id="18792"></path></svg>