<?xml version="1.0" standalone="no"?><!DOCTYPE svg PUBLIC "-//W3C//DTD SVG 1.1//EN" "http://www.w3.org/Graphics/SVG/1.1/DTD/svg11.dtd"><svg t="1739807996607" class="icon" viewBox="0 0 1024 1024" version="1.1" xmlns="http://www.w3.org/2000/svg" p-id="10481" xmlns:xlink="http://www.w3.org/1999/xlink" width="200" height="200"><path d="M192.012 565.302H64.016c-11.782 0-21.328 9.562-21.328 21.376 0 11.75 9.546 21.312 21.328 21.312h127.996c11.78 0 21.326-9.562 21.326-21.312 0-11.812-9.546-21.376-21.326-21.376zM959.986 565.302h-127.994c-11.782 0-21.312 9.562-21.312 21.344s9.532 21.344 21.312 21.344h127.994c11.782 0 21.312-9.562 21.312-21.312 0-11.812-9.53-21.376-21.312-21.376z" fill="#F6BB42" p-id="10482"></path><path d="M813.68 254.796l-90.5 90.514c-8.31 8.328-8.31 21.828 0 30.154 8.312 8.344 21.844 8.344 30.188 0l90.498-90.496c8.312-8.328 8.312-21.844 0-30.172s-21.842-8.328-30.186 0z" fill="#FFCE54" p-id="10483"></path><path d="M490.672 138.676v127.996c0 11.782 9.546 21.328 21.328 21.328s21.328-9.546 21.328-21.328V138.676c0-11.78-9.546-21.342-21.328-21.342s-21.328 9.562-21.328 21.342z" fill="#F6BB42" p-id="10484"></path><path d="M180.152 284.968l90.496 90.512c8.328 8.328 21.844 8.328 30.172 0 8.328-8.326 8.328-21.842 0-30.17l-90.514-90.514c-8.328-8.328-21.826-8.328-30.154 0-8.344 8.33-8.344 21.844 0 30.172zM292.868 671.986c-10.61-27.124-15.968-55.78-15.968-85.308 0-129.652 105.464-235.118 235.102-235.118 129.624 0 235.118 105.464 235.118 235.118 0 29.53-5.376 58.186-16 85.308H292.868z" fill="#FFCE54" p-id="10485"></path><path d="M512 330.216c-141.622 0-256.43 114.81-256.43 256.46 0 38.06 8.296 74.152 23.172 106.622h466.5c14.876-32.468 23.188-68.56 23.188-106.622 0-141.648-114.808-256.46-256.43-256.46z m204.056 320.458H307.96c-6.468-20.592-9.734-42.028-9.734-63.996 0-57.124 22.232-110.81 62.622-151.182 40.376-40.376 94.044-62.608 151.152-62.608 57.124 0 110.78 22.232 151.152 62.608 40.404 40.372 62.622 94.058 62.622 151.182 0 21.968-3.282 43.404-9.718 63.996z" fill="#F6BB42" p-id="10486"></path><path d="M572.342 787.482l-45.264-45.248a21.212 21.212 0 0 0-15.078-6.25 21.286 21.286 0 0 0-15.062 6.218l-0.016 0.032-45.264 45.248c-8.328 8.312-8.328 21.812 0 30.188a21.42 21.42 0 0 0 15.094 6.218 21.38 21.38 0 0 0 15.076-6.218l8.844-8.876v76.498c0 11.812 9.546 21.374 21.328 21.374s21.328-9.56 21.328-21.374v-76.498l8.844 8.876a21.286 21.286 0 0 0 15.078 6.25c5.466 0 10.936-2.094 15.092-6.25 8.344-8.344 8.344-21.876 0-30.188z" fill="#ED5564" p-id="10487"></path><path d="M1002.672 650.674H21.344c-11.782 0-21.328 9.532-21.328 21.312s9.546 21.312 21.328 21.312h981.328c11.75 0 21.312-9.532 21.312-21.312s-9.562-21.312-21.312-21.312z" fill="#656D78" p-id="10488"></path></svg>